<?xml version="1.0" encoding="UTF-8" ?>
<!DOCTYPE svg PUBLIC "-//W3C//DTD SVG 1.1//EN" "http://www.w3.org/Graphics/SVG/1.1/DTD/svg11.dtd">
<svg width="950pt" height="344pt" viewBox="0 0 950 344" version="1.1" xmlns="http://www.w3.org/2000/svg">
<g id="#000000ff">
<path fill="#000000" opacity="1.00" d=" M 274.06 34.06 C 278.06 30.06 282.88 25.57 289.02 26.27 C 297.41 25.95 304.24 35.04 302.14 43.03 C 301.43 46.24 299.56 49.03 297.35 51.41 C 293.00 56.04 288.28 60.30 283.67 64.67 C 270.28 77.95 256.87 91.21 243.57 104.57 C 239.67 108.61 235.42 112.31 231.87 116.68 C 266.58 116.70 301.29 116.69 336.00 116.68 C 342.39 116.83 349.30 117.30 354.45 121.57 C 363.35 128.25 365.18 140.65 362.78 150.92 C 360.82 161.48 350.40 169.22 339.80 168.82 C 338.67 172.61 337.89 176.49 337.12 180.37 C 328.91 218.83 320.80 257.31 312.59 295.76 C 310.65 305.39 301.93 313.35 292.01 313.65 C 228.66 313.68 165.31 313.60 101.96 313.68 C 91.13 314.27 81.16 305.41 79.22 294.97 C 71.43 258.44 63.69 221.89 55.93 185.35 C 54.65 179.81 53.82 174.17 52.23 168.70 C 45.25 169.44 38.44 166.27 33.54 161.46 C 27.54 154.83 26.51 145.11 27.81 136.60 C 28.99 128.01 35.35 120.44 43.65 117.90 C 47.03 117.11 50.54 116.86 54.00 116.70 C 99.88 116.63 145.77 116.79 191.65 116.62 C 218.92 88.91 246.58 61.57 274.06 34.06 M 133.28 197.12 C 126.72 198.72 123.27 205.59 123.62 211.96 C 123.67 231.32 123.61 250.69 123.64 270.05 C 123.69 276.63 129.06 283.56 135.99 283.44 C 142.61 283.89 149.29 277.90 148.66 271.10 C 148.74 251.06 148.66 231.01 148.70 210.97 C 148.63 207.34 148.78 202.98 145.64 200.47 C 142.25 197.80 137.64 195.49 133.28 197.12 M 192.36 197.25 C 187.42 198.57 183.31 203.13 183.46 208.39 C 183.20 228.27 183.45 248.16 183.34 268.04 C 183.45 271.08 183.24 274.36 184.74 277.13 C 186.96 280.58 190.77 283.32 194.99 283.32 C 201.78 283.91 208.19 277.62 207.60 270.79 C 207.63 250.00 207.75 229.19 207.54 208.40 C 207.82 200.93 199.29 194.95 192.36 197.25 M 252.26 196.96 C 249.17 197.85 245.85 199.11 244.07 201.99 C 241.94 204.87 242.46 208.63 242.29 212.00 C 242.38 232.03 242.19 252.07 242.38 272.10 C 242.21 281.09 254.34 286.85 261.37 281.43 C 266.72 277.80 267.96 271.02 267.39 264.99 C 267.34 247.32 267.36 229.64 267.38 211.97 C 267.34 207.44 266.21 202.37 262.38 199.52 C 259.55 197.41 255.81 195.85 252.26 196.96 Z" />
<path fill="#000000" opacity="1.00" d=" M 387.32 118.45 C 392.54 118.01 397.74 117.17 403.01 117.33 C 412.51 117.38 422.96 116.16 431.30 121.75 C 437.07 125.39 438.59 132.68 439.20 138.99 C 439.53 146.91 438.01 155.46 432.47 161.48 C 426.95 167.23 418.69 168.96 411.06 169.61 C 403.22 169.67 395.37 169.78 387.53 169.45 C 387.47 167.07 387.40 164.70 387.32 162.33 C 389.12 161.77 390.94 161.24 392.76 160.71 C 393.04 150.56 393.02 140.40 392.80 130.26 C 393.17 126.92 389.56 125.94 387.25 124.63 C 387.28 122.57 387.33 120.51 387.32 118.45 M 407.36 126.37 C 405.95 127.41 406.80 129.48 406.51 130.97 C 406.62 140.41 406.41 149.85 406.65 159.28 C 412.18 159.11 418.40 160.35 423.37 157.42 C 425.58 149.32 426.86 139.98 422.84 132.21 C 419.81 126.81 413.02 125.49 407.36 126.37 Z" />
<path fill="#000000" opacity="1.00" d=" M 461.41 117.72 C 468.79 115.75 476.87 116.25 483.89 119.27 C 492.36 123.15 496.08 133.15 495.64 141.98 C 496.13 150.59 493.51 159.99 486.49 165.49 C 479.54 171.04 470.05 171.46 461.61 170.17 C 454.65 168.91 448.10 164.32 445.75 157.48 C 442.92 148.54 442.84 138.43 446.93 129.86 C 449.55 123.88 455.12 119.35 461.41 117.72 M 458.77 128.78 C 457.62 136.59 456.47 144.85 459.40 152.43 C 460.82 156.52 464.41 160.31 468.96 160.44 C 472.65 160.67 477.06 160.57 479.68 157.55 C 481.71 152.00 481.73 145.89 481.24 140.06 C 480.42 135.13 478.36 129.29 473.04 127.74 C 468.39 125.52 463.37 127.52 458.77 128.78 Z" />
<path fill="#000000" opacity="1.00" d=" M 594.58 117.50 C 598.76 117.53 602.86 116.56 607.04 116.56 C 608.15 117.99 608.85 119.67 609.46 121.36 C 612.77 131.19 616.53 140.85 620.19 150.55 C 621.61 154.95 623.15 159.35 625.63 163.28 C 626.90 165.16 626.49 167.52 626.72 169.66 C 619.34 169.60 611.96 169.78 604.59 169.55 C 604.53 167.25 604.44 164.96 604.36 162.67 C 606.15 162.24 607.93 161.75 609.71 161.22 C 608.89 158.35 607.98 155.51 607.07 152.66 C 601.54 153.07 596.01 153.19 590.47 153.31 C 589.80 155.62 589.10 157.93 588.41 160.24 C 590.45 161.29 592.67 162.08 594.54 163.48 C 594.68 165.53 594.60 167.60 594.63 169.67 C 587.83 169.66 581.04 169.61 574.25 169.70 C 574.41 167.68 574.08 165.55 574.74 163.61 C 579.44 156.40 581.95 148.05 585.40 140.22 C 588.94 132.84 591.43 125.04 594.58 117.50 M 594.15 144.30 C 597.52 145.03 600.95 145.37 604.40 145.28 C 603.02 140.05 601.37 134.89 599.71 129.74 C 596.62 134.00 595.89 139.43 594.15 144.30 Z" />
<path fill="#000000" opacity="1.00" d=" M 637.48 123.47 C 642.94 118.35 650.70 116.67 657.98 116.71 C 664.15 117.27 670.69 117.73 676.11 121.04 C 676.02 125.74 674.98 130.36 674.47 135.02 C 672.70 135.23 670.87 135.84 669.12 135.32 C 666.03 132.81 664.83 127.42 660.15 127.51 C 655.78 126.93 651.34 127.08 646.99 127.74 C 643.51 134.25 644.16 141.82 644.52 148.92 C 645.42 153.95 649.07 158.79 654.11 160.22 C 657.49 160.83 660.94 160.52 664.36 160.38 C 664.39 157.94 664.55 155.49 664.31 153.07 C 663.37 151.19 661.16 150.39 659.81 148.83 C 659.82 147.39 660.06 145.96 660.25 144.53 C 665.60 143.94 670.91 143.03 676.28 142.50 C 678.14 149.82 677.17 157.50 677.15 164.96 C 675.56 166.85 672.99 167.32 670.81 168.19 C 661.24 171.52 649.98 172.06 640.91 167.03 C 632.95 162.50 630.08 152.64 630.36 144.00 C 629.99 136.61 632.11 128.77 637.48 123.47 Z" />
<path fill="#000000" opacity="1.00" d=" M 752.06 119.13 C 761.05 114.87 771.44 116.81 780.60 119.55 C 780.65 124.25 780.41 128.96 779.59 133.59 C 778.06 133.82 776.54 134.09 775.04 134.36 C 772.53 131.97 770.69 128.89 767.90 126.84 C 764.17 125.87 760.23 125.97 756.49 126.82 C 756.42 129.44 756.64 132.40 759.08 133.97 C 765.89 138.95 775.00 140.66 780.51 147.44 C 783.42 151.54 782.53 157.02 780.50 161.31 C 778.82 165.56 774.39 167.73 770.34 169.17 C 761.24 171.97 751.46 170.59 742.45 168.12 C 742.38 163.45 743.17 158.83 743.50 154.18 C 745.44 153.73 747.41 153.42 749.41 153.24 C 750.62 155.43 751.65 157.83 753.49 159.59 C 757.82 161.74 763.11 162.10 767.61 160.21 C 767.28 158.17 767.66 155.54 765.69 154.22 C 759.88 150.24 752.57 148.63 747.51 143.51 C 740.86 136.45 743.03 123.15 752.06 119.13 Z" />
<path fill="#000000" opacity="1.00" d=" M 501.60 117.71 C 506.68 117.70 511.79 117.26 516.85 117.85 C 521.09 121.77 523.97 126.90 527.71 131.26 C 532.21 136.50 535.80 142.52 540.83 147.30 C 540.73 141.61 540.53 135.92 540.38 130.24 C 540.30 126.95 536.82 125.56 534.53 123.92 C 534.49 121.84 534.49 119.76 534.53 117.69 C 540.80 117.51 547.07 117.71 553.33 117.54 C 554.23 119.92 554.43 122.46 554.21 124.99 C 552.98 125.65 550.46 125.30 550.50 127.25 C 549.95 141.29 550.67 155.40 549.66 169.42 C 546.91 170.10 544.28 171.43 541.43 171.58 C 535.05 164.23 529.58 156.10 523.46 148.53 C 520.22 144.74 517.94 140.03 513.74 137.16 C 513.78 140.79 514.39 144.39 514.44 148.03 C 514.60 151.77 514.23 155.66 515.57 159.24 C 516.70 161.16 518.85 162.13 520.60 163.40 C 520.61 165.50 520.63 167.60 520.71 169.70 C 514.10 169.63 507.49 169.60 500.89 169.73 C 500.65 167.02 500.57 164.31 500.62 161.60 C 501.95 161.54 503.29 161.50 504.64 161.46 C 504.53 150.61 505.11 139.75 504.86 128.91 C 504.94 126.34 502.42 124.96 501.27 122.94 C 501.20 121.19 501.45 119.45 501.60 117.71 Z" />
<path fill="#000000" opacity="1.00" d=" M 683.59 117.67 C 691.50 117.58 699.41 117.55 707.31 117.69 C 707.39 119.92 707.47 122.15 707.59 124.38 C 705.64 125.09 703.64 125.60 701.60 125.91 C 701.00 132.26 701.39 138.66 701.31 145.03 C 701.23 149.35 701.84 153.94 704.55 157.47 C 707.33 161.04 712.60 161.23 716.55 159.79 C 719.91 158.76 719.69 154.76 720.23 151.95 C 720.59 144.63 720.41 137.29 720.37 129.96 C 720.47 126.53 716.20 125.63 714.60 123.07 C 714.51 121.29 714.64 119.50 714.73 117.72 C 722.28 117.52 729.84 117.60 737.40 117.67 C 737.47 119.78 737.63 121.91 737.49 124.02 C 736.83 125.61 734.97 126.14 733.70 127.13 C 733.44 133.77 733.66 140.41 733.60 147.06 C 733.65 155.08 729.78 163.40 722.80 167.63 C 715.98 171.33 707.62 171.51 700.26 169.50 C 694.54 167.97 690.33 162.99 688.96 157.33 C 686.53 147.55 687.88 137.38 687.51 127.42 C 686.12 126.36 684.57 125.46 683.51 124.06 C 683.37 121.93 683.51 119.80 683.59 117.67 Z" />
<path fill="#000000" opacity="1.00" d=" M 787.39 117.91 C 803.35 117.17 819.36 117.90 835.34 117.54 C 837.07 122.68 836.33 128.19 836.40 133.51 C 834.65 133.42 832.81 133.89 831.16 133.24 C 828.92 131.24 827.09 128.86 825.11 126.63 C 822.94 126.62 820.78 126.59 818.64 126.58 C 818.57 137.73 818.52 148.88 818.67 160.03 C 820.65 161.21 822.64 162.38 824.66 163.50 C 824.70 165.57 824.70 167.63 824.74 169.70 C 815.96 169.60 807.18 169.65 798.40 169.68 C 798.44 167.28 798.43 164.89 798.39 162.50 C 800.52 161.94 802.64 161.36 804.78 160.78 C 805.12 149.39 804.81 138.00 804.94 126.61 C 802.69 126.62 800.40 126.42 798.19 126.89 C 796.02 128.83 794.35 131.25 792.62 133.57 C 790.80 133.62 789.00 133.66 787.20 133.72 C 787.23 128.45 787.53 123.18 787.39 117.91 Z" />
<path fill="#000000" opacity="1.00" d=" M 841.76 117.72 C 849.95 117.52 858.16 117.58 866.35 117.69 C 866.43 120.12 866.47 122.56 866.50 125.00 C 864.68 125.61 862.87 126.25 861.07 126.92 C 861.14 137.31 860.94 147.70 861.15 158.09 C 860.58 161.49 864.60 161.68 866.52 163.45 C 866.68 165.53 866.62 167.61 866.67 169.69 C 858.58 169.65 850.49 169.60 842.40 169.71 C 842.27 167.41 842.03 165.11 841.78 162.82 C 843.62 162.16 845.48 161.52 847.37 160.94 C 847.48 149.97 847.63 138.97 847.32 128.00 C 845.69 126.30 843.54 125.25 841.56 124.04 C 841.60 121.93 841.67 119.83 841.76 117.72 Z" />
<path fill="#000000" opacity="1.00" d=" M 872.71 117.73 C 877.81 117.53 882.92 117.58 888.03 117.68 C 889.53 119.58 891.01 121.53 892.62 123.36 C 898.60 129.78 903.59 137.03 909.04 143.89 C 909.98 145.02 911.11 145.98 912.26 146.92 C 912.97 140.43 911.47 134.02 911.43 127.55 C 908.56 125.63 904.41 123.29 905.79 119.14 C 906.11 118.80 906.74 118.11 907.05 117.77 C 913.16 117.37 919.29 117.68 925.41 117.67 C 925.48 119.79 925.63 121.92 925.50 124.04 C 924.60 125.44 923.01 126.17 921.74 127.17 C 921.48 141.04 921.53 154.93 921.60 168.81 C 918.71 169.65 915.57 171.92 912.65 171.33 C 905.98 163.29 899.90 154.76 893.44 146.54 C 890.89 143.40 888.87 139.78 885.71 137.18 C 884.87 144.67 886.69 152.08 886.53 159.56 C 888.50 160.97 890.64 162.24 892.22 164.13 C 892.51 165.98 892.22 167.87 892.12 169.73 C 885.52 169.60 878.91 169.62 872.32 169.71 C 872.37 167.02 872.37 164.34 872.36 161.66 C 873.76 161.07 876.63 161.29 876.38 159.06 C 876.42 149.36 876.48 139.65 876.47 129.95 C 876.93 126.88 873.64 125.46 872.56 123.01 C 872.46 121.25 872.61 119.48 872.71 117.73 Z" />
<path fill="#000000" opacity="1.00" d=" M 566.06 209.26 C 568.28 202.92 570.38 196.54 572.44 190.15 C 574.20 196.66 576.34 203.08 578.79 209.37 C 585.21 209.34 591.64 209.38 598.07 209.31 C 593.35 213.29 587.96 216.42 583.40 220.58 C 582.02 221.52 583.14 223.22 583.37 224.44 C 584.91 229.32 586.64 234.14 587.86 239.12 C 582.35 235.93 577.55 231.69 572.07 228.47 C 567.12 232.09 562.20 235.79 556.96 238.97 C 558.32 232.90 560.57 227.08 562.28 221.11 C 556.92 217.07 551.60 212.96 546.04 209.19 C 552.71 209.45 559.38 209.40 566.06 209.26 Z" />
<path fill="#000000" opacity="1.00" d=" M 736.56 190.13 C 738.61 196.53 740.71 202.92 742.94 209.26 C 749.61 209.40 756.28 209.45 762.96 209.20 C 757.36 212.92 752.09 217.09 746.72 221.11 C 748.37 227.11 750.84 232.89 751.91 239.05 C 746.78 235.73 741.87 232.07 736.93 228.47 C 731.44 231.68 726.64 235.94 721.13 239.12 C 722.33 233.02 725.44 227.29 726.16 221.18 C 721.54 216.66 715.82 213.48 710.92 209.31 C 717.35 209.37 723.78 209.34 730.21 209.37 C 732.65 203.08 734.80 196.65 736.56 190.13 Z" />
<path fill="#000000" opacity="1.00" d=" M 401.96 209.19 C 403.78 202.98 405.92 196.88 408.00 190.76 C 410.11 196.87 412.24 202.97 414.05 209.18 C 420.71 209.53 427.38 209.31 434.05 209.28 C 428.83 213.17 423.40 216.79 418.46 221.02 C 419.49 227.48 422.22 233.55 423.98 239.85 C 418.80 235.87 413.39 232.19 408.00 228.52 C 402.62 232.21 397.22 235.88 392.03 239.84 C 394.08 233.61 396.16 227.38 397.87 221.04 C 392.59 217.09 387.36 213.06 381.97 209.27 C 388.63 209.33 395.30 209.52 401.96 209.19 Z" />
<path fill="#000000" opacity="1.00" d=" M 484.01 209.26 C 486.14 203.18 487.91 196.96 490.32 190.98 C 492.34 196.87 493.93 202.93 496.35 208.67 L 496.99 209.24 C 503.34 209.57 509.70 209.25 516.06 209.32 C 510.87 213.25 505.60 217.07 500.39 220.99 C 501.98 227.33 504.20 233.49 506.04 239.77 C 500.85 235.81 495.46 232.11 490.05 228.46 C 484.74 232.28 479.33 235.97 474.06 239.83 C 476.39 233.68 478.21 227.34 480.02 221.02 C 474.75 217.01 469.49 212.96 463.98 209.28 C 470.65 209.37 477.33 209.43 484.01 209.26 Z" />
<path fill="#000000" opacity="1.00" d=" M 654.39 190.93 C 656.82 196.96 658.41 203.30 660.87 209.33 C 667.56 209.32 674.24 209.50 680.92 209.18 C 675.43 212.99 669.81 216.69 664.83 221.16 C 665.99 227.25 668.67 232.95 669.93 239.04 C 664.29 236.23 659.90 231.05 654.10 228.81 C 648.92 231.96 644.32 235.97 639.08 239.04 C 640.29 232.95 643.01 227.26 644.18 221.16 C 639.16 216.75 633.55 213.02 628.09 209.18 C 634.76 209.50 641.44 209.32 648.12 209.33 C 650.47 203.28 652.39 197.09 654.39 190.93 Z" />
<path fill="#000000" opacity="1.00" d=" M 818.66 190.98 C 821.12 196.95 822.82 203.19 824.98 209.27 C 831.65 209.43 838.34 209.37 845.02 209.28 C 839.51 212.97 834.24 217.00 828.98 221.02 C 830.78 227.35 832.60 233.68 834.93 239.84 C 829.66 235.97 824.25 232.29 818.95 228.46 C 813.54 232.11 808.15 235.80 802.97 239.76 C 804.62 234.09 806.55 228.51 808.20 222.84 C 808.99 221.04 806.97 220.04 805.92 219.01 C 801.66 215.69 797.20 212.64 792.94 209.32 C 799.30 209.25 805.66 209.56 812.02 209.25 C 815.33 203.74 816.34 197.00 818.66 190.98 Z" />
<path fill="#000000" opacity="1.00" d=" M 894.95 209.18 C 896.74 202.97 898.90 196.87 901.00 190.75 C 903.07 196.87 905.21 202.98 907.04 209.19 C 913.70 209.52 920.37 209.33 927.04 209.28 C 921.63 213.06 916.41 217.08 911.13 221.04 C 912.83 227.38 914.92 233.61 916.97 239.84 C 911.78 235.88 906.38 232.21 901.00 228.52 C 895.60 232.20 890.19 235.86 885.01 239.84 C 886.92 233.56 889.26 227.40 890.70 220.98 C 885.49 217.04 880.27 213.09 874.96 209.28 C 881.62 209.31 888.28 209.53 894.95 209.18 Z" />
<path fill="#000000" opacity="1.00" d=" M 596.44 261.52 C 601.48 261.57 606.52 261.57 611.56 261.52 C 613.85 263.82 616.35 265.95 618.32 268.55 C 619.66 271.40 618.92 274.69 618.90 277.73 C 617.34 277.71 615.79 277.71 614.24 277.73 C 613.84 275.07 614.45 271.81 612.13 269.88 C 609.58 266.24 604.72 267.61 600.95 267.42 C 598.23 267.05 596.32 269.20 594.89 271.18 C 594.30 275.69 593.42 281.59 598.15 284.22 C 602.85 285.13 607.69 284.13 612.44 284.68 C 615.06 286.60 617.31 289.04 619.36 291.55 C 620.00 296.52 619.48 301.56 619.57 306.56 C 617.21 308.87 614.89 311.22 612.64 313.62 C 606.88 313.67 601.12 313.68 595.37 313.62 C 593.17 311.18 590.61 309.07 588.60 306.47 C 588.13 303.46 588.41 300.39 588.38 297.36 C 590.03 297.47 591.68 297.55 593.34 297.62 C 593.44 299.69 593.32 301.81 593.82 303.85 C 594.98 305.50 596.42 306.99 598.15 308.08 C 602.01 308.59 605.99 308.56 609.87 308.10 C 614.96 305.70 614.15 299.69 613.87 295.06 C 613.82 293.00 611.96 291.65 610.49 290.50 C 605.58 289.41 600.33 291.13 595.52 289.43 C 593.22 287.49 590.79 285.44 589.35 282.78 C 588.59 279.22 588.89 275.52 588.95 271.90 C 588.88 267.15 593.72 264.74 596.44 261.52 Z" />
<path fill="#000000" opacity="1.00" d=" M 385.61 261.54 C 391.20 261.65 396.80 261.64 402.39 261.55 C 402.73 263.16 402.97 264.81 403.11 266.46 C 402.31 266.64 400.73 266.98 399.94 267.15 C 403.25 281.05 408.31 294.46 411.97 308.26 C 413.18 308.37 414.39 308.48 415.61 308.58 C 415.62 310.28 415.65 311.98 415.70 313.69 C 410.92 313.63 406.13 313.65 401.35 313.68 C 401.39 311.98 401.42 310.27 401.43 308.58 C 402.97 308.50 404.51 308.41 406.05 308.30 C 405.53 304.59 404.47 301.00 403.40 297.42 C 397.16 297.36 390.91 297.38 384.66 297.40 C 383.65 301.00 382.53 304.58 381.93 308.29 C 383.47 308.41 385.02 308.50 386.57 308.58 C 386.57 310.28 386.59 311.98 386.64 313.68 C 381.86 313.65 377.08 313.63 372.30 313.69 C 372.34 311.99 372.37 310.29 372.39 308.59 C 373.57 308.48 374.76 308.36 375.95 308.24 C 380.05 294.57 384.54 280.99 388.06 267.16 C 387.27 266.99 385.69 266.64 384.90 266.46 C 385.02 264.81 385.25 263.16 385.61 261.54 M 393.12 270.12 C 390.82 277.46 388.65 284.84 386.58 292.25 C 391.51 292.41 396.44 292.41 401.37 292.25 C 399.34 284.84 397.12 277.47 394.86 270.13 C 394.43 270.13 393.56 270.13 393.12 270.12 Z" />
<path fill="#000000" opacity="1.00" d=" M 429.50 261.65 C 434.41 261.59 439.33 261.54 444.24 261.71 C 444.25 263.30 444.26 264.90 444.26 266.49 C 442.60 266.51 440.96 266.52 439.31 266.51 C 439.30 278.34 439.28 290.16 439.30 301.99 C 439.00 305.93 443.19 309.09 446.96 308.39 C 450.99 307.94 456.28 309.86 459.09 306.02 C 460.91 304.56 460.47 302.07 460.58 300.02 C 460.43 288.93 460.70 277.84 460.43 266.76 C 458.70 266.69 456.98 266.63 455.27 266.57 C 455.58 264.99 455.05 263.08 456.12 261.77 C 460.87 261.36 465.65 261.68 470.42 261.66 C 470.42 263.27 470.42 264.88 470.43 266.50 C 469.06 266.51 467.70 266.52 466.35 266.52 C 466.49 278.36 466.35 290.20 466.44 302.04 C 467.13 307.18 461.89 309.96 458.85 313.21 C 453.05 313.89 446.95 313.89 441.16 313.21 C 438.51 310.67 435.22 308.31 433.65 304.98 C 433.37 292.17 433.51 279.33 433.62 266.52 C 432.23 266.52 430.85 266.52 429.48 266.52 C 429.47 264.89 429.48 263.27 429.50 261.65 Z" />
<path fill="#000000" opacity="1.00" d=" M 484.69 261.69 C 496.77 261.59 508.87 261.51 520.95 261.70 L 521.54 262.30 C 521.81 266.43 521.52 270.58 521.67 274.72 C 520.22 274.70 518.78 274.70 517.35 274.72 C 517.37 272.04 517.36 269.37 517.33 266.70 C 513.63 266.60 509.92 266.56 506.23 266.83 C 506.38 280.75 506.27 294.67 506.29 308.59 C 508.69 308.58 511.11 308.68 513.49 309.05 C 513.47 310.57 513.48 312.10 513.51 313.63 C 506.78 313.70 500.04 313.60 493.30 313.70 C 493.34 311.96 493.37 310.23 493.38 308.49 C 495.70 308.53 498.02 308.52 500.35 308.47 C 500.44 294.55 500.47 280.61 500.34 266.68 C 496.73 266.63 493.13 266.63 489.54 266.69 C 489.47 269.38 489.47 272.08 489.54 274.78 C 487.95 274.48 485.90 275.24 484.67 274.00 C 484.38 269.90 484.62 265.79 484.69 261.69 Z" />
<path fill="#000000" opacity="1.00" d=" M 536.45 269.38 C 539.30 266.87 541.51 263.27 545.04 261.75 C 550.61 261.56 556.27 261.30 561.82 261.91 C 564.46 263.97 566.79 266.42 569.02 268.92 C 570.42 270.22 569.96 272.25 570.11 273.95 C 570.01 283.67 570.16 293.38 570.04 303.09 C 570.23 307.63 565.87 310.17 563.55 313.52 C 556.84 313.78 550.13 313.64 543.42 313.61 C 541.15 311.21 538.85 308.84 536.50 306.53 C 536.41 294.15 536.51 281.76 536.45 269.38 M 542.39 270.39 C 542.23 280.94 542.35 291.49 542.31 302.04 C 541.93 305.54 545.57 308.63 548.94 308.33 C 552.60 308.35 556.28 308.50 559.94 308.18 C 562.31 307.23 564.67 304.82 564.39 302.06 C 564.39 292.69 564.38 283.32 564.39 273.95 C 564.75 270.54 561.48 267.12 558.05 267.46 C 554.06 267.44 550.04 267.22 546.06 267.66 C 544.74 268.44 543.59 269.45 542.39 270.39 Z" />
<path fill="#000000" opacity="1.00" d=" M 638.61 261.54 C 649.22 261.73 659.83 261.50 670.44 261.67 C 670.59 265.97 670.56 270.27 670.52 274.57 C 668.88 274.56 667.25 274.54 665.62 274.52 C 665.30 272.00 666.36 268.93 664.96 266.73 C 659.53 266.45 654.09 266.71 648.66 266.69 C 648.54 272.90 648.54 279.10 648.66 285.31 C 654.14 285.38 659.62 285.36 665.10 285.31 C 664.98 287.04 664.75 288.76 664.39 290.46 C 659.06 290.30 653.74 290.44 648.42 290.36 C 648.60 296.45 648.60 302.55 648.43 308.64 C 654.16 308.60 659.91 308.59 665.65 308.66 C 665.60 305.98 665.57 303.31 665.52 300.63 C 667.22 300.48 668.92 300.36 670.64 300.22 C 670.57 304.71 670.55 309.21 670.68 313.70 C 659.78 313.61 648.87 313.63 637.97 313.69 C 638.19 312.11 637.34 309.80 639.12 308.89 C 640.30 308.69 641.49 308.55 642.69 308.46 C 642.74 294.60 642.64 280.74 642.74 266.88 C 641.13 266.77 639.51 266.66 637.90 266.57 C 638.02 264.88 638.25 263.20 638.61 261.54 Z" />
<path fill="#000000" opacity="1.00" d=" M 689.76 261.70 C 698.83 261.55 707.90 261.56 716.97 261.69 C 719.36 264.36 722.25 266.62 724.32 269.56 C 724.75 274.54 724.33 279.56 724.48 284.55 C 722.08 287.01 719.48 289.30 717.39 292.04 C 718.88 297.62 722.17 302.56 723.86 308.10 C 725.38 308.49 726.91 308.88 728.45 309.30 C 728.45 310.73 728.48 312.18 728.53 313.62 C 724.13 313.67 719.73 313.67 715.34 313.64 C 715.42 312.30 715.50 310.97 715.59 309.64 C 716.37 309.02 717.14 308.38 717.90 307.72 C 715.99 302.24 712.99 297.20 710.93 291.76 C 707.49 291.61 704.05 291.62 700.62 291.69 C 700.47 297.26 700.46 302.83 700.63 308.39 C 701.96 308.44 703.29 308.49 704.64 308.53 C 704.63 310.25 704.65 311.97 704.69 313.69 C 699.62 313.62 694.55 313.68 689.48 313.63 C 689.51 312.12 689.52 310.61 689.52 309.11 C 691.22 308.84 692.93 308.64 694.65 308.47 C 694.55 294.49 694.56 280.50 694.64 266.52 C 693.00 266.53 691.36 266.51 689.73 266.49 C 689.73 264.89 689.74 263.29 689.76 261.70 M 700.65 267.59 C 700.55 273.82 700.52 280.05 700.67 286.28 C 705.38 286.23 710.14 286.75 714.82 286.05 C 716.76 284.59 719.12 282.76 718.86 280.03 C 718.97 275.64 719.88 269.86 714.94 267.70 C 710.20 267.15 705.41 267.54 700.65 267.59 Z" />
<path fill="#000000" opacity="1.00" d=" M 741.58 261.66 C 746.21 261.58 750.84 261.59 755.48 261.65 C 755.48 263.27 755.49 264.89 755.50 266.52 C 754.02 266.52 752.55 266.53 751.09 266.53 C 754.03 279.85 759.29 292.55 762.62 305.78 C 763.50 305.75 764.40 305.73 765.30 305.70 C 768.19 292.50 773.45 279.95 776.64 266.82 C 775.03 266.73 773.44 266.66 771.85 266.59 C 772.01 264.89 772.26 263.21 772.62 261.55 C 777.16 261.65 781.70 261.54 786.25 261.71 C 786.24 263.27 786.24 264.84 786.24 266.41 C 785.01 266.47 783.79 266.54 782.59 266.60 C 778.24 282.36 772.77 297.79 768.29 313.50 C 765.37 313.67 762.45 313.69 759.54 313.64 C 755.05 297.88 749.34 282.46 745.36 266.57 C 744.10 266.53 742.84 266.50 741.59 266.47 C 741.57 264.86 741.57 263.26 741.58 261.66 Z" />
<path fill="#000000" opacity="1.00" d=" M 800.66 261.54 C 805.90 261.65 811.14 261.64 816.39 261.54 C 816.73 263.22 816.97 264.92 817.13 266.63 C 815.28 266.66 813.45 266.69 811.62 266.73 C 811.46 280.64 811.47 294.55 811.62 308.45 C 813.32 308.48 815.04 308.50 816.77 308.50 C 816.84 310.23 816.92 311.96 816.98 313.70 C 811.28 313.63 805.59 313.65 799.90 313.68 C 799.98 311.95 800.22 310.23 800.66 308.55 C 802.31 308.59 803.98 308.62 805.65 308.65 C 805.55 294.61 805.57 280.57 805.63 266.53 C 803.65 266.55 801.68 266.51 799.72 266.42 C 799.98 264.78 800.30 263.16 800.66 261.54 Z" />
<path fill="#000000" opacity="1.00" d=" M 843.17 261.92 C 848.34 261.37 853.66 261.37 858.83 261.92 C 861.52 264.05 863.92 266.56 866.14 269.19 C 867.04 271.86 866.41 274.81 866.55 277.59 C 864.96 277.56 863.37 277.54 861.80 277.50 C 861.76 273.99 862.23 269.52 858.45 267.69 C 853.51 267.13 848.45 267.19 843.51 267.66 C 840.82 269.04 841.16 272.41 841.05 274.95 C 841.11 283.98 841.03 293.01 841.08 302.04 C 840.79 304.76 843.11 306.71 845.13 308.10 C 849.00 308.57 852.98 308.58 856.86 308.09 C 858.58 306.98 860.02 305.48 861.26 303.85 C 861.78 301.83 861.63 299.72 861.75 297.67 C 863.36 297.57 864.98 297.47 866.61 297.35 C 866.58 300.38 866.86 303.45 866.41 306.47 C 864.39 309.07 861.83 311.18 859.64 313.62 C 853.89 313.67 848.14 313.69 842.39 313.61 C 840.17 311.18 837.61 309.07 835.61 306.45 C 835.12 294.12 835.54 281.73 835.43 269.38 C 838.05 266.94 840.33 264.12 843.17 261.92 Z" />
<path fill="#000000" opacity="1.00" d=" M 884.17 266.61 C 884.43 264.98 884.03 263.12 884.97 261.69 C 895.29 261.58 905.64 261.48 915.96 261.74 C 918.28 265.45 916.68 270.49 916.88 274.72 C 915.28 274.71 913.70 274.71 912.13 274.72 C 911.98 272.06 911.91 269.40 911.86 266.74 C 906.27 266.59 900.67 266.58 895.08 266.74 C 895.06 272.91 895.06 279.09 895.08 285.26 C 900.59 285.49 906.11 285.13 911.62 285.55 C 911.48 287.13 911.36 288.72 911.26 290.31 C 905.89 290.43 900.53 290.42 895.17 290.32 C 895.01 296.44 895.01 302.56 895.18 308.68 C 900.71 308.59 906.24 308.58 911.78 308.68 C 911.89 305.89 911.98 303.10 912.16 300.32 C 913.72 300.33 915.28 300.33 916.86 300.32 C 917.18 304.77 917.16 309.25 916.90 313.71 C 906.03 313.61 895.17 313.63 884.30 313.69 C 884.33 311.97 884.36 310.24 884.37 308.52 C 886.01 308.50 887.65 308.47 889.31 308.42 C 889.43 294.53 889.45 280.63 889.30 266.74 C 887.58 266.69 885.87 266.65 884.17 266.61 Z" />
</g>
</svg>
