<?xml version="1.0" encoding="UTF-8" ?>
<!DOCTYPE svg PUBLIC "-//W3C//DTD SVG 1.1//EN" "http://www.w3.org/Graphics/SVG/1.1/DTD/svg11.dtd">
<svg width="718pt" height="212pt" viewBox="0 0 718 212" version="1.1" xmlns="http://www.w3.org/2000/svg">
<g id="#ffffffff">
<path fill="#ffffff" opacity="1.00" d=" M 605.03 198.85 C 608.89 196.78 613.40 197.86 617.58 197.86 C 617.55 198.52 617.48 199.85 617.45 200.52 C 613.76 200.41 610.05 200.75 606.39 200.36 C 606.05 199.98 605.37 199.23 605.03 198.85 Z" />
</g>
<g id="#000000ff">
<path fill="#000000" opacity="1.00" d=" M 77.59 8.59 C 79.22 4.40 83.50 1.49 87.99 1.48 C 100.96 1.46 113.94 1.48 126.91 1.48 C 131.43 1.56 135.31 4.89 136.89 9.01 C 154.44 48.82 173.30 88.03 191.69 127.45 C 193.37 130.68 192.92 134.46 192.76 137.97 C 191.37 144.09 185.29 148.60 179.05 148.43 C 158.78 148.38 138.50 148.50 118.23 148.37 C 113.74 156.70 110.41 165.61 106.02 173.99 C 104.01 176.82 100.42 178.08 97.05 177.97 C 67.36 177.94 37.67 177.99 7.99 177.95 C 4.76 178.00 1.54 175.30 1.51 171.99 C 1.23 169.32 2.65 166.95 3.66 164.60 C 28.33 112.60 52.89 60.56 77.59 8.59 M 82.91 10.89 C 58.45 62.45 34.07 114.06 9.61 165.62 C 8.47 167.70 7.49 169.90 7.22 172.28 C 37.11 172.37 67.01 172.29 96.90 172.33 C 99.38 172.53 101.55 170.69 102.34 168.43 C 118.79 132.76 135.32 97.12 151.71 61.42 C 153.96 58.04 150.71 54.61 149.66 51.40 C 145.05 41.24 140.42 31.09 135.84 20.92 C 133.72 16.48 132.06 11.79 129.28 7.69 C 115.26 7.35 101.24 7.57 87.22 7.56 C 85.13 7.34 83.59 9.11 82.91 10.89 M 125.39 132.45 C 123.74 135.74 122.06 139.04 121.06 142.60 C 140.71 142.80 160.38 142.69 180.04 142.66 C 185.94 142.52 189.49 135.45 186.79 130.40 C 178.25 111.63 169.25 93.08 160.62 74.35 C 159.22 71.46 157.97 68.47 156.05 65.87 C 145.91 88.10 135.54 110.22 125.39 132.45 Z" />
<path fill="#000000" opacity="1.00" d=" M 226.26 1.25 C 250.51 1.02 274.77 1.23 299.03 1.14 C 303.62 0.89 308.42 3.31 310.26 7.66 C 311.40 10.98 311.36 14.54 311.32 18.00 C 311.26 57.01 311.36 96.03 311.27 135.04 C 311.49 141.31 306.51 147.77 299.91 147.55 C 275.30 147.55 250.69 147.60 226.09 147.53 C 220.14 147.64 215.96 141.55 216.27 136.00 C 216.33 94.70 216.18 53.38 216.34 12.08 C 216.20 6.49 221.04 2.13 226.26 1.25 M 222.37 9.89 C 222.18 52.29 222.31 94.69 222.30 137.09 C 221.97 139.03 223.49 140.32 224.55 141.70 C 249.36 141.99 274.19 141.74 299.01 141.83 C 302.72 142.39 305.62 138.48 305.45 135.08 C 305.44 94.36 305.44 53.64 305.44 12.92 C 305.91 9.31 302.39 6.55 299.01 6.73 C 275.71 6.85 252.41 6.44 229.10 6.59 C 226.49 6.65 224.24 8.21 222.37 9.89 Z" />
<path fill="#000000" opacity="1.00" d=" M 327.41 1.60 C 328.87 1.18 330.41 1.17 331.92 1.14 C 349.30 1.17 366.67 1.14 384.05 1.15 C 388.30 1.17 392.69 4.69 392.66 9.15 C 393.13 12.94 390.89 16.23 389.45 19.55 C 385.73 27.19 382.29 34.97 378.55 42.60 C 376.29 46.78 372.74 50.70 367.96 51.82 C 362.36 52.79 356.65 52.33 351.00 52.43 C 343.65 52.33 336.29 52.68 328.95 52.13 C 323.55 52.42 319.05 47.19 319.01 42.00 C 318.99 32.00 318.98 22.00 319.02 12.00 C 319.05 7.16 322.90 2.93 327.41 1.60 M 324.44 13.98 C 324.41 22.66 324.42 31.34 324.43 40.02 C 324.27 43.15 326.49 47.08 330.06 46.64 C 341.38 46.64 352.71 46.67 364.04 46.62 C 368.71 46.83 371.97 42.75 373.89 38.97 C 377.54 31.19 381.15 23.39 384.86 15.65 C 386.03 13.06 388.23 10.19 386.18 7.45 C 367.45 7.19 348.70 7.34 329.97 7.37 C 326.44 7.07 324.30 10.87 324.44 13.98 Z" />
<path fill="#000000" opacity="1.00" d=" M 419.31 1.31 C 443.55 0.93 467.82 1.27 492.07 1.14 C 498.51 0.66 503.89 6.67 503.64 12.91 C 503.66 53.63 503.64 94.36 503.65 135.08 C 503.95 141.31 498.57 147.82 492.05 147.29 C 467.68 147.27 443.31 147.29 418.94 147.28 C 414.70 147.55 411.24 144.01 409.83 140.30 C 408.28 136.73 408.80 132.78 408.74 128.99 C 408.75 90.30 408.73 51.61 408.74 12.93 C 408.57 7.00 413.21 1.41 419.31 1.31 M 417.20 7.80 C 415.40 8.94 414.26 10.92 414.52 13.08 C 414.51 53.69 414.52 94.30 414.51 134.92 C 414.36 138.03 416.51 141.98 420.02 141.80 C 443.97 141.82 467.92 141.88 491.87 141.77 C 495.83 141.79 498.29 137.67 498.23 134.08 C 498.20 94.05 498.25 54.03 498.21 14.01 C 497.91 11.18 496.64 6.96 493.05 7.34 C 469.36 7.27 445.66 7.36 421.97 7.30 C 420.37 7.35 418.72 7.25 417.20 7.80 Z" />
<path fill="#000000" opacity="1.00" d=" M 531.35 1.52 C 532.84 1.15 534.40 1.16 535.94 1.13 C 558.61 1.19 581.28 1.11 603.96 1.17 C 610.63 1.22 616.36 7.29 616.17 13.94 C 616.23 54.31 616.22 94.68 616.18 135.05 C 616.52 141.57 610.41 147.28 604.04 147.27 C 580.01 147.30 555.98 147.29 531.95 147.27 C 525.63 147.36 520.95 140.93 521.16 134.97 C 521.15 94.98 521.16 54.98 521.15 14.98 C 520.94 8.79 525.19 2.82 531.35 1.52 M 530.43 8.21 C 528.40 9.37 527.15 11.61 527.34 13.96 C 527.30 54.31 527.34 94.68 527.32 135.03 C 526.81 138.50 529.62 142.15 533.27 141.76 C 556.17 141.89 579.07 141.80 601.96 141.81 C 606.26 142.21 611.11 138.67 610.57 134.07 C 610.54 94.36 610.55 54.65 610.56 14.94 C 610.86 11.31 607.97 7.11 604.04 7.36 C 581.36 7.26 558.66 7.37 535.98 7.30 C 534.11 7.39 532.06 7.13 530.43 8.21 Z" />
<path fill="#000000" opacity="1.00" d=" M 633.49 1.77 C 634.93 1.35 636.45 1.50 637.94 1.45 C 659.98 1.49 682.02 1.49 704.06 1.45 C 708.55 1.22 713.20 3.68 715.31 7.70 C 718.08 13.68 716.10 20.61 713.05 26.13 C 703.30 47.35 693.61 68.61 683.82 89.82 C 681.74 95.45 678.37 101.09 672.65 103.60 C 663.62 107.47 653.54 105.90 644.00 106.24 C 639.33 106.04 633.93 107.13 629.95 104.07 C 627.46 102.18 625.43 99.29 625.52 96.05 C 625.47 68.35 625.52 40.66 625.49 12.96 C 625.18 7.94 628.55 3.01 633.49 1.77 M 633.42 8.22 C 630.84 9.83 631.00 13.28 630.82 15.94 C 630.85 41.66 630.80 67.38 630.84 93.10 C 630.84 95.97 631.79 99.45 634.96 100.26 C 643.31 100.44 651.66 100.24 660.01 100.34 C 663.78 100.46 667.68 99.76 671.01 97.94 C 675.51 95.26 677.38 90.13 679.38 85.58 C 689.41 63.90 699.22 42.12 709.31 20.47 C 710.42 17.72 712.10 14.61 710.68 11.65 C 709.96 8.68 706.94 7.07 704.04 7.35 C 682.01 7.27 659.99 7.35 637.96 7.32 C 636.44 7.45 634.69 7.22 633.42 8.22 Z" />
<path fill="#000000" opacity="1.00" d=" M 324.40 59.45 C 327.79 58.20 331.47 58.79 335.00 58.67 C 342.65 58.82 350.33 58.40 357.97 58.88 C 364.01 59.35 367.51 66.64 364.91 71.88 C 360.45 81.74 355.99 91.60 351.36 101.38 C 349.54 105.71 345.32 108.68 340.79 109.51 C 336.52 109.82 332.23 109.68 327.96 109.65 C 323.16 109.90 318.43 105.86 318.51 100.92 C 318.44 89.98 318.50 79.03 318.49 68.09 C 318.31 64.34 320.87 60.66 324.40 59.45 M 327.38 64.47 C 324.51 65.05 323.63 68.37 323.75 70.94 C 323.79 80.31 323.68 89.68 323.80 99.04 C 323.58 102.43 326.86 104.60 329.98 104.26 C 335.35 104.27 342.50 105.14 345.67 99.66 C 350.25 90.76 353.93 81.41 358.39 72.44 C 359.26 70.43 360.49 67.96 359.22 65.85 C 358.13 64.02 355.85 64.40 354.07 64.33 C 345.17 64.47 336.26 64.17 327.38 64.47 Z" />
<path fill="#000000" opacity="1.00" d=" M 162.57 193.70 C 168.54 193.78 174.54 193.41 180.50 193.85 C 183.72 193.94 185.92 197.01 185.71 200.08 C 185.73 203.69 186.56 208.59 182.50 210.43 C 175.71 211.41 168.79 211.26 161.96 210.69 C 161.77 205.08 160.74 199.08 162.57 193.70 M 165.62 206.86 C 170.79 207.50 176.38 208.07 181.37 206.30 C 181.77 203.71 181.76 201.07 181.44 198.47 C 176.53 196.99 171.29 197.84 166.24 197.75 C 164.89 200.41 166.00 203.88 165.62 206.86 Z" />
<path fill="#000000" opacity="1.00" d=" M 215.66 193.56 C 217.01 193.60 218.25 194.06 219.37 194.80 C 219.26 199.94 219.27 205.08 219.37 210.22 C 218.11 210.67 216.79 210.79 215.47 210.76 C 215.43 205.03 215.18 199.28 215.66 193.56 Z" />
<path fill="#000000" opacity="1.00" d=" M 256.86 194.88 C 260.22 192.93 264.29 193.88 267.98 193.67 C 271.95 193.92 276.20 192.87 279.90 194.77 C 279.65 195.49 279.15 196.91 278.90 197.63 C 272.50 197.80 266.10 197.49 259.71 197.85 C 259.82 198.51 260.04 199.85 260.16 200.51 C 265.42 200.62 270.70 200.28 275.94 200.67 C 280.95 201.17 281.13 210.69 275.79 210.75 C 269.25 211.34 262.66 211.33 256.13 210.67 C 255.28 209.57 255.31 208.51 256.23 207.49 C 261.15 207.12 266.09 207.43 271.02 207.36 C 272.86 207.61 274.54 206.81 276.08 205.89 C 275.19 204.97 274.14 204.50 272.91 204.49 C 268.28 204.36 263.65 204.67 259.03 204.41 C 254.97 203.25 254.67 197.84 256.86 194.88 Z" />
<path fill="#000000" opacity="1.00" d=" M 283.34 193.74 C 289.55 193.54 295.78 193.74 302.00 193.65 C 303.56 193.54 305.06 194.02 306.53 194.50 C 306.43 195.44 306.33 196.38 306.24 197.32 C 302.95 197.86 299.60 197.67 296.29 197.70 C 296.03 202.00 296.10 206.32 296.17 210.63 C 294.89 210.72 293.60 210.75 292.32 210.78 C 292.01 206.43 292.21 202.06 292.12 197.70 C 289.03 197.68 285.95 197.66 282.86 197.67 C 282.61 196.30 281.80 194.67 283.34 193.74 Z" />
<path fill="#000000" opacity="1.00" d=" M 309.83 193.90 C 314.21 193.37 318.64 193.81 323.04 193.66 C 325.80 193.76 328.79 193.20 331.33 194.61 C 333.78 196.90 333.29 200.32 332.13 203.13 C 330.86 203.72 329.60 204.33 328.33 204.92 C 329.91 206.02 331.49 207.10 333.06 208.22 C 332.72 209.23 332.38 210.24 332.03 211.24 C 327.30 210.06 323.71 206.53 319.28 204.71 C 317.38 204.31 315.43 204.51 313.51 204.45 C 313.32 206.61 313.09 208.78 312.64 210.91 C 311.37 210.77 310.11 210.58 308.85 210.36 C 309.29 204.91 307.70 199.06 309.83 193.90 M 313.40 197.69 C 313.41 198.40 313.41 199.81 313.41 200.52 C 318.44 200.22 323.67 201.10 328.58 200.09 C 328.65 199.55 328.79 198.48 328.86 197.94 C 323.72 197.44 318.55 197.75 313.40 197.69 Z" />
<path fill="#000000" opacity="1.00" d=" M 389.71 193.54 C 390.96 193.77 392.19 194.11 393.41 194.49 C 393.38 199.83 393.46 205.17 393.36 210.50 C 392.09 210.64 390.81 210.72 389.54 210.73 C 389.50 205.00 389.27 199.25 389.71 193.54 Z" />
<path fill="#000000" opacity="1.00" d=" M 401.48 193.84 C 406.07 193.58 410.74 193.42 415.32 193.96 C 419.28 194.12 420.34 198.80 420.27 202.02 C 420.38 205.21 419.80 209.97 415.96 210.63 C 411.32 211.07 406.64 210.77 401.99 210.81 C 399.50 210.97 396.55 209.49 396.45 206.73 C 396.19 203.65 396.11 200.50 396.59 197.44 C 397.10 195.19 399.32 193.99 401.48 193.84 M 400.53 198.36 C 399.84 201.26 398.94 205.47 402.17 207.17 C 406.10 207.61 410.08 207.19 414.03 207.36 C 417.01 205.33 417.33 200.52 414.75 198.06 C 410.09 197.41 405.15 197.30 400.53 198.36 Z" />
<path fill="#000000" opacity="1.00" d=" M 443.60 193.71 C 444.51 193.69 445.42 193.67 446.33 193.65 C 447.18 199.34 446.69 205.14 446.62 210.87 C 445.56 210.85 444.51 210.75 443.48 210.56 C 437.65 207.59 432.82 202.88 426.77 200.32 C 426.70 203.80 426.80 207.29 426.58 210.77 C 425.30 210.72 424.02 210.62 422.76 210.49 C 422.73 205.23 422.73 199.98 422.76 194.72 C 423.31 194.40 424.42 193.78 424.98 193.46 C 430.86 197.21 436.61 201.15 442.58 204.75 C 442.97 201.07 442.30 197.26 443.60 193.71 Z" />
<path fill="#000000" opacity="1.00" d=" M 466.43 193.74 C 474.15 193.63 481.87 193.63 489.60 193.73 C 489.81 195.00 489.90 196.28 489.76 197.57 C 483.16 197.82 476.55 197.57 469.95 197.73 C 470.02 198.43 470.16 199.83 470.22 200.53 C 475.63 200.52 481.04 200.42 486.45 200.62 C 486.42 201.56 486.36 203.45 486.33 204.40 C 480.94 204.57 475.54 204.46 470.14 204.49 C 470.03 206.56 469.96 208.64 469.79 210.71 C 468.60 210.77 467.43 210.83 466.26 210.88 C 466.21 205.17 465.91 199.44 466.43 193.74 Z" />
<path fill="#000000" opacity="1.00" d=" M 493.38 193.67 C 501.11 193.73 508.83 193.54 516.56 193.78 C 516.74 195.01 516.79 196.25 516.72 197.50 C 510.08 197.89 503.42 197.55 496.78 197.72 C 496.86 198.43 497.03 199.84 497.11 200.55 C 502.52 200.52 507.94 200.39 513.35 200.67 C 513.77 202.24 513.37 203.51 512.14 204.47 C 507.12 204.56 502.10 204.48 497.08 204.45 C 497.07 205.17 497.05 206.60 497.03 207.32 C 503.23 207.45 509.44 207.14 515.63 207.46 C 517.41 207.28 516.76 209.56 516.93 210.60 C 508.96 211.17 500.97 211.36 492.99 210.75 C 492.94 205.07 492.34 199.29 493.38 193.67 Z" />
<path fill="#000000" opacity="1.00" d=" M 520.41 193.65 C 526.18 193.78 531.96 193.51 537.73 193.74 C 540.99 193.85 543.82 196.79 543.68 200.06 C 543.81 203.64 544.34 208.62 540.37 210.37 C 533.62 211.63 526.70 211.06 519.89 210.74 C 519.84 205.08 518.91 199.16 520.41 193.65 M 523.68 197.71 C 523.58 200.91 523.59 204.12 523.73 207.33 C 528.13 207.26 532.54 207.50 536.95 207.25 C 540.64 206.23 540.12 201.66 539.14 198.83 C 534.43 196.44 528.77 198.20 523.68 197.71 Z" />
<path fill="#000000" opacity="1.00" d=" M 546.54 193.90 C 551.69 193.44 556.87 193.76 562.03 193.66 C 565.01 193.75 568.25 193.10 570.89 194.88 C 570.59 195.52 569.98 196.80 569.68 197.44 C 563.26 198.06 556.78 197.41 550.34 197.78 C 550.39 198.46 550.49 199.84 550.54 200.53 C 555.95 200.62 561.38 200.21 566.77 200.79 C 566.75 201.64 566.71 203.33 566.69 204.17 C 561.29 204.84 555.84 204.33 550.43 204.50 C 550.43 205.16 550.43 206.50 550.43 207.16 C 556.84 207.69 563.31 206.94 569.71 207.55 C 570.83 208.52 570.87 209.53 569.81 210.59 C 562.13 211.54 554.36 211.13 546.65 210.81 C 546.33 205.18 546.49 199.53 546.54 193.90 Z" />
<path fill="#000000" opacity="1.00" d=" M 138.24 194.07 C 143.43 193.33 148.72 193.69 153.95 193.76 C 155.51 193.59 155.80 195.48 156.25 196.56 C 157.29 201.20 158.56 205.83 158.87 210.60 C 158.13 210.69 156.66 210.88 155.92 210.97 C 154.91 208.91 154.16 206.75 153.61 204.53 C 149.00 204.48 144.39 204.40 139.79 204.62 C 139.43 206.63 139.03 208.63 138.56 210.63 C 137.44 210.70 136.32 210.76 135.20 210.81 C 135.13 205.08 137.19 199.64 138.24 194.07 M 141.34 197.72 C 141.29 198.64 141.23 199.56 141.18 200.49 C 145.04 200.51 148.90 200.53 152.76 200.50 C 152.72 199.57 152.68 198.64 152.64 197.72 C 148.87 197.66 145.11 197.66 141.34 197.72 Z" />
<path fill="#000000" opacity="1.00" d=" M 188.91 194.05 C 193.79 193.41 196.64 198.84 200.93 199.56 C 204.01 197.62 206.92 195.42 209.98 193.44 C 210.63 193.79 211.92 194.48 212.57 194.82 C 212.60 199.94 212.54 205.06 212.62 210.18 C 211.22 210.71 209.61 211.71 208.67 209.93 C 208.42 206.62 208.64 203.30 208.53 199.99 C 205.45 201.03 203.13 203.83 200.05 204.54 C 197.51 203.11 195.22 201.26 192.60 199.96 C 192.48 203.37 192.48 206.78 192.56 210.19 C 191.20 210.68 189.63 211.62 188.60 210.01 C 188.55 204.70 188.22 199.33 188.91 194.05 Z" />
<path fill="#000000" opacity="1.00" d=" M 222.57 193.49 C 223.32 193.71 224.81 194.14 225.56 194.36 C 231.15 197.79 236.40 201.81 242.26 204.79 C 242.52 201.18 241.69 197.36 242.78 193.89 C 243.51 193.90 244.97 193.93 245.70 193.94 C 245.84 199.60 245.91 205.28 245.67 210.94 C 244.59 210.88 243.53 210.74 242.49 210.51 C 236.67 207.58 231.99 202.57 225.80 200.38 C 225.77 203.81 225.80 207.24 225.71 210.68 C 224.92 210.76 223.33 210.91 222.53 210.99 C 222.06 205.18 222.04 199.29 222.57 193.49 Z" />
<path fill="#000000" opacity="1.00" d=" M 248.68 194.57 C 249.92 193.98 251.25 193.11 252.52 194.21 C 252.88 199.73 252.67 205.29 252.57 210.82 C 251.28 210.75 250.00 210.65 248.72 210.52 C 248.63 205.21 248.70 199.89 248.68 194.57 Z" />
<path fill="#000000" opacity="1.00" d=" M 339.26 193.95 C 344.84 193.40 350.45 193.72 356.04 193.75 C 357.85 199.25 359.41 204.92 359.81 210.72 C 358.68 210.73 357.55 210.73 356.43 210.72 C 355.67 208.70 355.07 206.63 354.51 204.55 C 349.92 204.46 345.33 204.43 340.74 204.60 C 340.34 206.59 339.93 208.57 339.46 210.55 C 338.37 210.71 337.29 210.85 336.20 210.97 C 335.83 205.12 338.01 199.57 339.26 193.95 M 342.19 197.78 C 342.20 198.47 342.22 199.85 342.23 200.55 C 346.02 200.49 349.82 200.51 353.62 200.54 C 353.63 199.88 353.65 198.57 353.66 197.91 C 349.84 197.53 346.01 197.65 342.19 197.78 Z" />
<path fill="#000000" opacity="1.00" d=" M 365.53 194.52 C 368.84 193.12 372.52 193.83 376.01 193.67 C 379.68 193.87 383.60 192.95 387.02 194.73 C 386.74 195.46 386.20 196.92 385.92 197.65 C 379.68 197.95 373.35 197.07 367.19 198.28 C 366.71 201.13 365.39 205.52 368.65 207.16 C 374.08 207.67 379.56 207.07 385.01 207.40 C 386.97 206.94 387.50 210.41 385.58 210.65 C 379.49 211.53 373.31 211.19 367.21 210.70 C 364.76 210.52 362.72 208.52 362.78 206.02 C 362.53 202.15 361.65 196.93 365.53 194.52 Z" />
<path fill="#000000" opacity="1.00" d=" M 573.37 193.94 C 580.74 193.69 588.29 193.02 595.57 194.43 C 596.50 196.68 597.97 199.16 596.61 201.57 C 596.09 203.61 593.82 204.11 592.22 205.04 C 594.16 206.28 599.11 208.41 595.76 210.86 C 591.76 210.64 588.81 207.38 585.36 205.68 C 582.99 203.98 579.98 204.58 577.27 204.47 C 577.09 206.56 576.97 208.65 576.72 210.73 C 575.60 210.78 574.48 210.83 573.37 210.88 C 573.26 205.23 573.25 199.59 573.37 193.94 M 577.13 197.75 C 577.17 198.45 577.26 199.84 577.30 200.53 C 582.35 200.49 587.41 200.53 592.46 200.49 C 592.54 199.86 592.70 198.58 592.78 197.95 C 587.57 197.47 582.34 197.69 577.13 197.75 Z" />
<path fill="#000000" opacity="1.00" d=" M 603.23 193.99 C 608.79 193.36 614.40 193.73 619.98 193.76 C 621.77 199.01 623.07 204.44 623.95 209.91 C 623.39 211.29 621.52 210.52 620.40 210.84 C 619.66 208.77 619.08 206.64 618.54 204.52 C 613.91 204.50 609.28 204.40 604.66 204.61 C 604.25 206.60 603.89 208.60 603.50 210.59 C 602.29 210.69 601.09 210.78 599.89 210.84 C 599.79 205.06 601.96 199.56 603.23 193.99 M 605.03 198.85 C 605.37 199.23 606.05 199.98 606.39 200.36 C 610.05 200.75 613.76 200.41 617.45 200.52 C 617.48 199.85 617.55 198.52 617.58 197.86 C 613.40 197.86 608.89 196.78 605.03 198.85 Z" />
<path fill="#000000" opacity="1.00" d=" M 626.48 197.99 C 626.30 196.32 626.89 194.76 627.80 193.38 C 628.52 193.65 629.96 194.18 630.68 194.44 C 630.84 198.73 630.72 203.03 630.84 207.32 C 635.49 207.28 640.14 207.47 644.79 207.28 C 646.59 206.85 646.89 204.62 647.89 203.32 C 651.85 203.65 650.84 207.79 650.68 210.58 C 642.78 211.44 634.82 211.23 626.89 210.76 C 626.21 206.54 626.55 202.24 626.48 197.99 Z" />
</g>
</svg>
